<?xml version="1.0" encoding="iso-8859-1"?>
<!-- Generator: Adobe Illustrator 19.0.0, SVG Export Plug-In . SVG Version: 6.00 Build 0)  -->
<svg version="1.1" id="Layer_1" xmlns="http://www.w3.org/2000/svg" xmlns:xlink="http://www.w3.org/1999/xlink" x="0px" y="0px"
	 viewBox="0 0 399.026 399.026" style="enable-background:new 0 0 399.026 399.026;" xml:space="preserve">
<g>
	<g>
		<path d="M380.645,270.755c-0.036-0.265-3.629-26.857-10.146-56.05c-8.94-40.049-18.994-65.877-29.882-76.765l-59.688-59.688
			c-10.137-10.138-26.632-10.138-36.771,0c-6.041,6.041-9.673,13.848-10.424,22.256L142.638,9.413
			C136.567,3.343,128.496,0,119.909,0c-8.59,0.008-16.657,3.353-22.724,9.419c-5.128,5.129-8.154,11.574-9.084,18.258
			c-12.608-10.094-31.112-9.306-42.791,2.374c-12.529,12.53-12.529,32.918,0,45.449l0.42,0.42
			c-6.789,0.995-13.055,4.128-17.995,9.069c-6.069,6.07-9.412,14.14-9.412,22.725c0,8.583,3.343,16.653,9.412,22.723l38.439,38.439
			c-5.201,1.023-10.147,3.474-14.178,7.381c-5.624,5.451-8.726,12.77-8.733,20.606c0,7.671,2.986,14.877,8.408,20.299L177.909,343.4
			c10.528,10.529,22.488,19.493,35.547,26.645c11.976,6.559,22.944,14.78,32.599,24.436l2.643,2.642
			c1.269,1.269,2.933,1.903,4.596,1.903c1.664,0,3.327-0.635,4.596-1.904l120.909-120.908
			C380.232,274.781,380.914,272.763,380.645,270.755z M253.276,383.353c-10.041-9.694-21.324-17.999-33.575-24.708
			c-11.976-6.559-22.944-14.78-32.599-24.435L60.864,207.971c-2.967-2.966-4.601-6.909-4.601-11.101
			c0.004-4.286,1.702-8.294,4.781-11.278c6.116-5.927,16.152-5.689,22.374,0.531l52.392,52.388c1.269,1.269,2.933,1.904,4.596,1.904
			c1.664,0,3.327-0.634,4.596-1.904c2.539-2.539,2.539-6.654,0-9.192L36.928,121.245c-3.615-3.615-5.605-8.421-5.605-13.532
			c0-5.112,1.99-9.918,5.605-13.532c3.614-3.615,8.42-5.605,13.531-5.605c5.111,0,9.917,1.991,13.531,5.605l98.656,98.656
			c2.54,2.539,6.655,2.538,9.193,0c2.538-2.539,2.538-6.654,0-9.192L54.504,66.307c-7.462-7.462-7.462-19.603,0-27.064
			c7.46-7.461,19.603-7.462,27.064,0l109.698,109.702c0.951,0.952,2.125,1.547,3.354,1.785c2.05,0.398,4.254-0.196,5.842-1.784
			c2.539-2.539,2.539-6.654,0-9.192l-94.124-94.125c-7.418-7.464-7.406-19.57,0.041-27.017c3.613-3.614,8.421-5.607,13.536-5.612
			c5.108,0,9.916,1.991,13.531,5.606l110.71,110.71c0,0,0.001,0.001,0.001,0.002l49.361,49.361c1.269,1.269,2.933,1.904,4.596,1.904
			c1.663,0,3.327-0.635,4.596-1.904c2.539-2.539,2.539-6.654,0-9.192l-49.363-49.363c-4.364-4.364-6.767-10.167-6.767-16.339
			s2.404-11.975,6.769-16.34c5.069-5.069,13.317-5.069,18.387,0l59.688,59.688c17.853,17.853,31.517,91.359,35.896,122.175
			L253.276,383.353z"/>
	</g>
</g>
<g>
</g>
<g>
</g>
<g>
</g>
<g>
</g>
<g>
</g>
<g>
</g>
<g>
</g>
<g>
</g>
<g>
</g>
<g>
</g>
<g>
</g>
<g>
</g>
<g>
</g>
<g>
</g>
<g>
</g>
</svg>
